<svg width="236" height="40" viewBox="0 0 236 40" fill="none" xmlns="http://www.w3.org/2000/svg">
<rect width="236" height="40" fill="#F5F5F5"/>
<g clip-path="url(#clip0_0_1)">
<rect width="236" height="40" fill="white"/>
<path d="M70.5426 32H63.9517L73.9943 2.90909H81.9205L91.9489 32H85.358L78.071 9.55682H77.8438L70.5426 32ZM70.1307 20.5653H85.6989V25.3665H70.1307V20.5653Z" fill="black"/>
<path d="M95.5284 32V2.90909H101.58V13.8466H101.764C102.029 13.2595 102.413 12.6629 102.915 12.0568C103.426 11.4413 104.089 10.9299 104.903 10.5227C105.727 10.1061 106.75 9.89773 107.972 9.89773C109.563 9.89773 111.03 10.3144 112.375 11.1477C113.72 11.9716 114.795 13.2169 115.599 14.8835C116.404 16.5407 116.807 18.6193 116.807 21.1193C116.807 23.553 116.414 25.608 115.628 27.2841C114.851 28.9508 113.791 30.215 112.446 31.0767C111.111 31.929 109.615 32.3551 107.957 32.3551C106.783 32.3551 105.784 32.161 104.96 31.7727C104.146 31.3845 103.478 30.8968 102.957 30.3097C102.437 29.7131 102.039 29.1117 101.764 28.5057H101.494V32H95.5284ZM101.452 21.0909C101.452 22.3883 101.632 23.5199 101.991 24.4858C102.351 25.4517 102.872 26.2045 103.554 26.7443C104.236 27.2746 105.064 27.5398 106.04 27.5398C107.025 27.5398 107.858 27.2699 108.54 26.7301C109.222 26.1809 109.738 25.4233 110.088 24.4574C110.448 23.482 110.628 22.3598 110.628 21.0909C110.628 19.8314 110.453 18.7235 110.102 17.767C109.752 16.8106 109.236 16.0625 108.554 15.5227C107.872 14.983 107.034 14.7131 106.04 14.7131C105.055 14.7131 104.222 14.9735 103.54 15.4943C102.867 16.0152 102.351 16.7538 101.991 17.7102C101.632 18.6667 101.452 19.7936 101.452 21.0909Z" fill="black"/>
<path d="M134.406 22.7102V10.1818H140.457V32H134.648V28.0369H134.42C133.928 29.3153 133.109 30.3428 131.963 31.1193C130.827 31.8958 129.439 32.2841 127.801 32.2841C126.343 32.2841 125.06 31.9527 123.952 31.2898C122.844 30.6269 121.977 29.6847 121.352 28.4631C120.737 27.2415 120.424 25.7784 120.415 24.0739V10.1818H126.466V22.9943C126.475 24.2822 126.821 25.3002 127.503 26.0483C128.185 26.7964 129.098 27.1705 130.244 27.1705C130.973 27.1705 131.655 27.0047 132.29 26.6733C132.924 26.3324 133.436 25.8305 133.824 25.1676C134.222 24.5047 134.416 23.6856 134.406 22.7102Z" fill="#C6920D"/>
</g>
<defs>
<clipPath id="clip0_0_1">
<rect width="236" height="40" fill="white"/>
</clipPath>
</defs>
</svg>
